<svg id="Layer_1" data-name="Layer 1" 
    xmlns="http://www.w3.org/2000/svg" viewBox="0 0 311.04 341.66">
    <defs>
        <style>.cls-1{fill:#e0e0e0;}</style>
    </defs>
    <title>find</title>
    <path class="cls-1" d="M809.32,354.33c-.7,27.88-8.36,53.45-23.65,76.69-1.55,2.36-1.64,3.79.26,6.09,14.38,17.36,28.35,35.06,42.89,52.28,19.86,23.53,7.52,56.77-21.73,64.15-14.84,3.74-27.89-.75-37.75-12.46-15-17.85-29.67-36-44.3-54.22-2-2.52-3.57-2.78-6.47-1.66C640.21,515.52,552.26,470,531.81,388.69A140.87,140.87,0,0,1,639.56,216.16C717,199.89,793.11,251.65,806.62,330,808,338,808.44,346.2,809.32,354.33Zm-19.38-.09c.27-66.7-54.08-121.71-120.6-122.07-67.79-.37-122.83,53.9-123.08,121.35s54.23,122,121.86,122.22C735,476,789.67,421.47,789.94,354.24Zm-49,121.16a1.79,1.79,0,0,0,.3.56c14.32,17.55,28.55,35.17,43.1,52.53a20.94,20.94,0,0,0,9,5.82c8.13,2.8,17.5-1.27,22.72-9.15,4.62-7,4.1-15.47-1.59-22.47q-20.56-25.31-41.22-50.54a11.26,11.26,0,0,1-1.16-1.91Z" transform="translate(-527.48 -213.17)"/>
    <path class="cls-1" d="M632.08,311.44c.51-25.51,20.76-44.81,46.5-44.31,24.16.47,43.8,21.31,43.23,45.87-.58,25-21.21,44.22-46.85,43.64C651.35,356.11,631.61,335.3,632.08,311.44ZM677,285.95a25.95,25.95,0,1,0,.07,51.89c14.54,0,26-11.74,25.84-26.5A25.86,25.86,0,0,0,677,285.95Z" transform="translate(-527.48 -213.17)"/>
    <path class="cls-1" d="M626.1,447.84c-5.51-3.33-11-6.62-16.52-10a2.67,2.67,0,0,1-1.17-1.89c.17-10.79-.69-21.76.95-32.34,2.77-17.88,18.66-30.4,36.71-30.48q30.9-.14,61.81,0c20.68.1,37.12,16.86,38,37.55.33,7.79-1.7,13.58-7.87,18.19-3.62,2.7-7,5.77-11,9.12-.11-1.69-.23-2.64-.23-3.59,0-7.63,0-15.25,0-22.88-.05-11.11-8.21-19.46-19.36-19.52q-30.39-.16-60.78,0c-11.32,0-19.47,8.27-19.6,19.7-.11,10.58,0,21.17,0,31.76q0,1.86,0,3.72Z" transform="translate(-527.48 -213.17)"/>
    <path class="cls-1" d="M565,352.53c1.61-32.39,13.85-57.72,37.14-77.68,3-2.55,6.21-3.73,10.07-2.3a9,9,0,0,1,6.12,7.54c.59,4-1.32,6.93-4.3,9.44A82.58,82.58,0,0,0,587,331.64a79.7,79.7,0,0,0-2.62,30.4c.71,6.15-3,10.83-8.66,11.31-5.4.45-9.74-3.64-10.14-9.65C565.27,359.39,565.12,355.07,565,352.53Z" transform="translate(-527.48 -213.17)"/>
</svg>