<svg id="Layer_1" data-name="Layer 1" 
    xmlns="http://www.w3.org/2000/svg" viewBox="0 0 306.56 341.66">
    <defs>
        <style>.cls-1{fill:#e0e0e0;}</style>
    </defs>
    <title>pay</title>
    <path class="cls-1" d="M808.33,354.55c14.89,2.23,25,9.72,27.6,25.25,1.81,11-3.26,19-18.45,29.69,11.43,5,19.32,13,18.48,26-.9,13.86-10.2,21.07-23.27,24.66,9.83,8,14.68,17.7,9.93,29.71-5.64,14.23-17.83,18.18-32.54,18a20.45,20.45,0,0,0,1.45,1.65c16.26,14.25,9.67,37-9.65,43.57a30.65,30.65,0,0,1-9.72,1.78c-16.95,0-33.9-.06-50.84-.61a139.7,139.7,0,0,1-54-13.15c-13.81-6.32-27.16-13.84-42.14-17.23-6.91-1.57-14-2.43-21-3.61-1.08-.18-2.16-.32-3.46-.51V378.91c7.81-.95,15.5-1.54,23.07-2.86,15.49-2.7,28.18-10.37,38.13-22.55q3.38-4.14,6.8-8.24c8.42-10.12,12.93-12.65,26.33-14.51-.71-3.3-1.32-6.59-2.13-9.83q-9.5-38-19.06-76c-.77-3.09-.94-6.37-2-9.33-1.94-5.27,1.69-8.75,6-9.82,11.42-2.82,22.82-5.76,34.3-8.3,37.17-8.21,73.68-4,109.82,6.23,2.95.83,5.94,1.54,8.83,2.56,4.28,1.51,5.8,4.14,4.73,8.52-6.5,26.67-13.21,53.29-19.57,80-2.89,12.16-5.15,24.46-7.66,36.71A16.2,16.2,0,0,0,808.33,354.55Zm1.52-91.19c-2.23-.55-3.78-.89-5.31-1.3-11.07-3-17.82-10.26-18.84-21-.31-3.23-1.74-4-4.38-4.61-18.65-4.34-37.24-3.59-55.84.26-2.4.5-3.35,1.41-3.67,4-1.35,10.76-7.23,18-17.68,21.26-2,.61-4,.93-6.43,1.47,1.34,6.77,2.68,13.34,4,19.92,4.07,21,8.07,42.1,12.25,63.12a5.26,5.26,0,0,0,2.95,3.5c5.66,1.53,11.4,3.47,17.18,3.69,18.64.7,37.3.68,56,1,2,0,2.65-.64,3-2.66,3.21-18.34,6.47-36.67,9.92-55C805,285.91,807.48,274.8,809.85,263.36Z" transform="translate(-529.72 -213.17)"/>
    <path class="cls-1" d="M588.39,454.89q0,38.32,0,76.64,0,11.57-11.48,11.59-17.87,0-35.74,0c-7.72,0-11.45-3.82-11.45-11.59q0-76.27,0-152.55c0-9.09,3.38-12.5,12.38-12.5h34.64c7.94,0,11.64,3.74,11.65,11.78Q588.4,416.57,588.39,454.89Z" transform="translate(-529.72 -213.17)"/>
    <path class="cls-1" d="M753.11,330.82c-11-.8-20.78-4.81-26.44-15.62-4-7.6-2.68-15.5,3.12-21.77,11.57-12.53,36-12.64,47.64-.21,7,7.48,7.48,17.45,1,25.82C772.17,327.07,763.58,330.37,753.11,330.82Z" transform="translate(-529.72 -213.17)"/>
</svg>