<svg id="Layer_1" data-name="Layer 1" 
    xmlns="http://www.w3.org/2000/svg" viewBox="0 0 252.2 341.66">
    <defs>
        <style>.cls-1{fill:#e0e0e0;}</style>
    </defs>
    <title>hire</title>
    <path class="cls-1" d="M809.1,384.45q0,71.88,0,143.75c0,15.6-11,26.62-26.67,26.62q-99.43,0-198.85,0C568,554.82,557,543.75,557,528.14q0-126.58-.06-253.16a9.49,9.49,0,0,1,3.11-7.34Q585.81,242,611.4,216.25a9.48,9.48,0,0,1,7.35-3.08q81.46.13,162.92.08c16.76,0,27.41,10.67,27.42,27.45Q809.12,312.57,809.1,384.45Zm-239.45-114c-.08,1.58-.18,2.74-.18,3.9q0,126.56,0,253.13c0,10,4.93,14.85,15,14.85h90.23q54.1,0,108.2,0c8.47,0,13.6-5.23,13.71-13.71,0-1.2,0-2.4,0-3.59q0-142.53,0-285.07c0-9.11-5.19-14.22-14.42-14.22h-168c0,6.24,0,12.06,0,17.87,0,16.73-10.12,26.83-26.85,26.85Z" transform="translate(-556.9 -213.17)"/>
    <path class="cls-1" d="M662.17,360.74c.53-6,.69-11.32-2.65-16.22-1.62-2.38-2.27-5.4-3.75-7.9a12.8,12.8,0,0,0-4-4.17c-4.07-2.6-7.63-14.75-5.11-19,.73-1.23,2.33-1.94,4-3.26-.2-3.28-.28-7.11-.67-10.91-1.92-18.59,7.86-30.7,26.63-32.5,10.18-1,20,0,28,7.47.91.84,2.38,1.07,3.59,1.59,5.39,2.33,10.15,9.67,9.95,15.69-.18,5.31-.61,10.62-.9,15.93-.1,1.84-.47,3.87,2.3,4.16a1.21,1.21,0,0,1,.66.42c3.16,3.51,2,7.53,1,11.33s-1.9,7.79-6.34,9.43a6.53,6.53,0,0,0-3.27,2.42c-2.47,4.24-5.2,8.46-6.78,13.05-1.2,3.48-.94,7.5-1,11.28,0,.62,1.88,1.53,3,1.83,9.5,2.51,19,5.16,28.56,7.26,6.11,1.34,9,5.14,10.31,10.74,3.11,12.86,2.22,14.53-10.48,17.74-19.88,5-40.14,6.24-60.54,5.6-15.84-.5-31.59-1.91-46.8-6.73-9.26-2.94-7.5-1.7-7.19-10.26a40.51,40.51,0,0,1,1.27-8.24c1.15-4.62,4-7.47,8.85-8.63C641.32,366.33,651.68,363.48,662.17,360.74Z" transform="translate(-556.9 -213.17)"/>
    <path class="cls-1" d="M684.87,424.12h61a27.79,27.79,0,0,1,2.79,0,6.21,6.21,0,0,1-.08,12.41c-1.19.11-2.39.05-3.59,0l-121.28,0a27.43,27.43,0,0,1-3.59-.06,6.2,6.2,0,0,1,.08-12.36,28.71,28.71,0,0,1,3.59-.06Z" transform="translate(-556.9 -213.17)"/>
    <path class="cls-1" d="M684.68,468.56H623.24c-.53,0-1.06,0-1.6,0-4.33-.14-7.24-2.74-7.14-6.39s2.87-6,7-6.07c7.71-.08,15.43,0,23.14,0H746a17.09,17.09,0,0,1,3.18.08c3.23.62,5.25,2.56,5.53,5.9a6.24,6.24,0,0,1-5.43,6.38,36.05,36.05,0,0,1-5.18.13H684.68Z" transform="translate(-556.9 -213.17)"/>
    <path class="cls-1" d="M684.19,500.51h-61c-.53,0-1.06,0-1.6,0-4.15-.15-6.94-2.56-7-6.08s2.77-6.36,7.12-6.38c12.9-.06,25.8,0,38.7,0H745.7a21.86,21.86,0,0,1,3.19.06c3.45.51,5.57,2.49,5.83,6,.24,3.19-2.42,6-5.91,6.36a46,46,0,0,1-4.78.07H684.19Z" transform="translate(-556.9 -213.17)"/>
</svg>