<svg id="Layer_1" data-name="Layer 1" 
    xmlns="http://www.w3.org/2000/svg" viewBox="0 0 220.81 220.81">
    <defs>
        <style>.cls-1{fill:#00aaa0;}</style>
    </defs>
    <title>cleaning</title>
    <path class="cls-1" d="M698.53,458.41l-2.38-.25a103.1,103.1,0,0,1-12.2-2c-3.56-.78-7.07-1.74-10.54-2.85l-.33-.12.41-.21a53.2,53.2,0,0,0,13.85-9.14,73.18,73.18,0,0,0,12.17-14.34,2.78,2.78,0,0,0-2.07-4.42,2.51,2.51,0,0,0-2.32,1c-.67.87-1.26,1.79-1.89,2.68a63.44,63.44,0,0,1-9.93,11.15,46.1,46.1,0,0,1-15.22,9.18c-1.08.38-2.21.65-3.31,1a.76.76,0,0,1-.46,0,113.73,113.73,0,0,1-19.9-10.63l-.16-.15,1.62-.23a43.2,43.2,0,0,0,15.55-5.65,57.39,57.39,0,0,0,14.07-12,2.8,2.8,0,0,0-.17-4,2.77,2.77,0,0,0-3.9.15c-1.5,1.53-2.91,3.15-4.47,4.63a43.07,43.07,0,0,1-15.51,9.73,32.34,32.34,0,0,1-12.07,1.87,20.47,20.47,0,0,1-2.52-.27,2.15,2.15,0,0,1-.94-.47,107.44,107.44,0,0,1-15.2-15.26,2.8,2.8,0,0,1-.31-3.47,2.63,2.63,0,0,1,2.27-1.26,63.38,63.38,0,0,0,23-4.45,54.09,54.09,0,0,0,19.54-12.77c1.74-1.8,3.26-3.81,4.88-5.72l.32-.4c.13.19.24.35.34.52a19.08,19.08,0,0,0,4.7,5.25,12.57,12.57,0,0,0,8,2.7.8.8,0,0,1,.79.44,12.31,12.31,0,0,0,4.72,4.13,15.12,15.12,0,0,0,7.13,2,2.24,2.24,0,0,1,2,1,14.33,14.33,0,0,0,7,4.69,14.06,14.06,0,0,0,5.94.74.6.6,0,0,1,.45.15c2.46,2.87,5.73,4.27,9.31,5.07a35.87,35.87,0,0,0,8.56.73h.39c0,.14-.06.25-.1.35a117.92,117.92,0,0,1-11.58,22.1,80.68,80.68,0,0,1-12.33,14.55c-1.2,1.1-2.48,2.13-3.77,3.12a16.57,16.57,0,0,1-2.07,1.17Z" transform="translate(-572.59 -273.59)"/>
    <path class="cls-1" d="M743.17,328.07l-5.87,16.26-9.55,26.46c0,.12-.1.24-.15.37l-21.87-9.73.18-.37q10.32-19.38,20.63-38.77a6.89,6.89,0,0,1,4.89-3.66,9.21,9.21,0,0,1,5.24.43,10.65,10.65,0,0,1,5,3.47,9.51,9.51,0,0,1,1.45,3Z" transform="translate(-572.59 -273.59)"/>
    <path class="cls-1" d="M603.12,351.09a22.51,22.51,0,0,1,.81-3.2,11.18,11.18,0,0,1,19.54-2.35,10.44,10.44,0,0,1,1.91,8.08,11.19,11.19,0,0,1-22,.85c-.13-.54-.2-1.08-.29-1.63Z" transform="translate(-572.59 -273.59)"/>
    <path class="cls-1" d="M679.64,372.83a18,18,0,0,1,11.25-7.54,20.92,20.92,0,0,1,10.32.64,70.44,70.44,0,0,1,8.48,3.37c5.17,2.32,10.38,4.55,15.49,7A19.17,19.17,0,0,1,736,390.06a18.79,18.79,0,0,1-.06,8.16.47.47,0,0,1-.32.3,37.59,37.59,0,0,1-9.46-.32,12.11,12.11,0,0,1-4.82-1.83,5.49,5.49,0,0,1-1.86-2.16,2.8,2.8,0,0,0-3.91-1.6,5,5,0,0,1-3.3,0,10.46,10.46,0,0,1-5.11-3.13,2.81,2.81,0,0,1-.53-1,2.76,2.76,0,0,0-3.43-1.92,4.57,4.57,0,0,1-2.42,0,18.58,18.58,0,0,1-6.44-2.94,2.62,2.62,0,0,1-1-1.24,2.58,2.58,0,0,0-2.37-1.79,13.14,13.14,0,0,1-3.28-.46,11.46,11.46,0,0,1-5-3.37C681.63,375.49,680.66,374.14,679.64,372.83Z" transform="translate(-572.59 -273.59)"/>
    <path class="cls-1" d="M635.37,368.78a15.4,15.4,0,1,1-15.44,15.36A15.45,15.45,0,0,1,635.37,368.78Z" transform="translate(-572.59 -273.59)"/>
    <path class="cls-1" d="M734.25,404.27c0,.12,0,.23-.08.33-.69,2.13-1.37,4.27-2.07,6.4a.59.59,0,0,1-.39.35,35.88,35.88,0,0,1-9.67-.49,13.65,13.65,0,0,1-4.4-1.65,7.89,7.89,0,0,1-2.5-2.47,4.4,4.4,0,0,0-1.21-1.21,2.59,2.59,0,0,0-2.32-.18c-3,1-7.73-1-9.42-3.45a8,8,0,0,1-.68-1.36,2.74,2.74,0,0,0-3.46-1.65,6.12,6.12,0,0,1-3.36.07,10.73,10.73,0,0,1-5.05-2.55,4,4,0,0,1-1.19-1.95,2.71,2.71,0,0,0-3.28-2.09,7.78,7.78,0,0,1-6-1.08,10.1,10.1,0,0,1-3-3c-.81-1.26-1.48-2.6-2.2-3.92a.55.55,0,0,1,0-.44c.92-1.85,1.85-3.7,2.79-5.58l.49.59a19.86,19.86,0,0,0,6.74,5.66A14.3,14.3,0,0,0,688.6,386a.88.88,0,0,1,.54.22,15.06,15.06,0,0,0,5.2,3.84,21.19,21.19,0,0,0,6.54,2.09h0c1.07-.18,1.61.51,2.29,1.2,3.29,3.35,7.2,5.29,12,5a.55.55,0,0,1,.4.16c2.22,2.8,5.27,4.15,8.63,4.93a34.83,34.83,0,0,0,9.13.75l.7,0Z" transform="translate(-572.59 -273.59)"/>
    <path class="cls-1" d="M639.55,349.17a5.6,5.6,0,1,1-5.61,5.58A5.61,5.61,0,0,1,639.55,349.17Z" transform="translate(-572.59 -273.59)"/>
    <path class="cls-1" d="M683,494.41A110.41,110.41,0,1,1,793.41,384,110.53,110.53,0,0,1,683,494.41Zm0-214A103.61,103.61,0,1,0,786.61,384,103.73,103.73,0,0,0,683,280.39Z" transform="translate(-572.59 -273.59)"/>
</svg>