<svg id="Layer_1" data-name="Layer 1" 
    xmlns="http://www.w3.org/2000/svg" viewBox="0 0 220.81 220.81">
    <defs>
        <style>.cls-1{fill:#c60070;}</style>
    </defs>
    <title>improvement</title>
    <path class="cls-1" d="M726.06,445.49c-2.92-1.33-3.82-3.63-3.81-6.78.09-21.38,0-42.75,0-64.13,0-5.11,1.69-6.8,6.75-6.82,2.63,0,5.26,0,7.88,0,4.06.08,6,2,6,6,0,21.9,0,43.8,0,65.7a6.24,6.24,0,0,1-3.77,6Z" transform="translate(-572.59 -273.59)"/>
    <path class="cls-1" d="M674,445.49c-2.81-1.62-3.62-4.08-3.61-7.24.09-17.69,0-35.38,0-53.07,0-5.36,1.69-7,7.11-7h6.83c5.06,0,6.84,1.75,6.85,6.75q0,15.37,0,30.74c0,7.53-.1,15.06,0,22.59.06,3.17-.81,5.62-3.61,7.24Z" transform="translate(-572.59 -273.59)"/>
    <path class="cls-1" d="M699.77,445.49c-2.71-1.71-3.47-4.18-3.44-7.32.12-14.19,0-28.38.05-42.57,0-5.48,1.55-7,7-7,2.72,0,5.43,0,8.15,0,3.43.09,5.51,2,5.53,5.34.06,15.41,0,30.83,0,46.24,0,2.62-1.67,4.07-3.65,5.32Z" transform="translate(-572.59 -273.59)"/>
    <path class="cls-1" d="M648.22,445.49c-2.75-1.48-3.74-3.75-3.71-6.89.12-12.78,0-25.55.05-38.33,0-4.72,1.77-6.51,6.48-6.56,2.89,0,5.78-.07,8.66,0,3.61.12,5.53,2,5.54,5.58.06,13.48,0,27,.06,40.43,0,2.7-1.45,4.32-3.41,5.74Z" transform="translate(-572.59 -273.59)"/>
    <path class="cls-1" d="M622.45,445.49c-2.9-1.37-3.82-3.66-3.78-6.81.14-9.46,0-18.93.06-28.39,0-4.35,1.89-6.21,6.26-6.26,2.89,0,5.79-.06,8.68,0,3.7.09,5.67,2.06,5.69,5.75,0,10,0,20,0,30,0,2.87-1.46,4.53-3.79,5.73Z" transform="translate(-572.59 -273.59)"/>
    <path class="cls-1" d="M672,342.63a8.64,8.64,0,0,1,6.47-9.74,9,9,0,0,1,10.6,4.74,4.15,4.15,0,0,0,3.67,2.67,24.43,24.43,0,0,1,3.61.69,4,4,0,0,0,4.47-1c2.29-2.17,5.17-2.66,8.33-2a4.41,4.41,0,0,0,3.21-.68c3.15-2.37,6.1-5,9.19-7.45a4.14,4.14,0,0,0,1.85-3.69,9,9,0,0,1,8.14-9.07,9.36,9.36,0,0,1,10.28,7.4,9.22,9.22,0,0,1-6.36,10.7,8.56,8.56,0,0,1-4.63.22c-2-.63-3.27.06-4.65,1.3-1.89,1.7-3.9,3.26-5.87,4.86-2.34,1.9-4.53,3.48-4.53,7.28s-3.63,6.77-7.7,7.46a9,9,0,0,1-9.31-4.53,4.2,4.2,0,0,0-3.76-2.65,18.47,18.47,0,0,1-3.35-.64,6.4,6.4,0,0,0-5.54.91c-2,1.22-4.74,1.14-7.15,1.65-1.26.27-2.72.28-3.73.94-2.26,1.48-4.28,3.34-6.44,5-2.54,1.94-4.67,3.65-4.91,7.57-.33,5.49-6.62,8.8-11.89,6.82a4.46,4.46,0,0,0-4.59.49,51.24,51.24,0,0,1-4.53,2.66c-2.52,1.37-4.49,2.66-5,6.18-.71,5.06-6.41,7.83-11.41,6.41A9.35,9.35,0,0,1,620,375.79a9.12,9.12,0,0,1,11.42-6.56,5.72,5.72,0,0,0,5.53-.8,39.19,39.19,0,0,1,3.85-2.26c2.69-1.43,4.85-2.79,5.48-6.46.82-4.75,6-7.34,10.9-6.11a3.74,3.74,0,0,0,3.76-.9c3-2.45,6.08-4.75,9-7.23A14.05,14.05,0,0,0,672,342.63Z" transform="translate(-572.59 -273.59)"/>
    <path class="cls-1" d="M683,494.41A110.41,110.41,0,1,1,793.41,384,110.53,110.53,0,0,1,683,494.41Zm0-214A103.61,103.61,0,1,0,786.61,384,103.73,103.73,0,0,0,683,280.39Z" transform="translate(-572.59 -273.59)"/>
</svg>