<svg id="Layer_1" data-name="Layer 1" 
    xmlns="http://www.w3.org/2000/svg" viewBox="0 0 220.81 220.81">
    <defs>
        <style>.cls-1{fill:#7b8d8e;}</style>
    </defs>
    <title>repair</title>
    <path class="cls-1" d="M622.25,365.55a37.24,37.24,0,0,0,3.33,7.91l-4,5.07a4.16,4.16,0,0,0,.31,5.51L628.8,391a4.14,4.14,0,0,0,5.51.31l5-4a36.6,36.6,0,0,0,8.22,3.48l.75,6.48a4.15,4.15,0,0,0,4.12,3.68h9.8a4.15,4.15,0,0,0,4.12-3.68l.72-6.25a37,37,0,0,0,8.81-3.56l4.87,3.86a4.16,4.16,0,0,0,5.51-.31l6.92-6.92a4.14,4.14,0,0,0,.31-5.51l-3.79-4.81a36.16,36.16,0,0,0,3.63-8.66l5.84-.67a4.15,4.15,0,0,0,3.68-4.12v-9.8a4.15,4.15,0,0,0-3.68-4.12l-5.76-.67a36.39,36.39,0,0,0-3.48-8.57l3.54-4.48a4.16,4.16,0,0,0-.31-5.51l-6.91-6.91a4.14,4.14,0,0,0-5.51-.31l-4.35,3.45a36.52,36.52,0,0,0-9-3.77l-.66-5.63a4.15,4.15,0,0,0-4.12-3.68h-9.8a4.15,4.15,0,0,0-4.12,3.68l-.66,5.63a36.37,36.37,0,0,0-9.24,3.91l-4.51-3.58a4.16,4.16,0,0,0-5.51.31l-6.92,6.92a4.14,4.14,0,0,0-.31,5.51l3.77,4.77a35.69,35.69,0,0,0-3.41,8.65l-6,.69a4.15,4.15,0,0,0-3.68,4.12v9.8a4.15,4.15,0,0,0,3.68,4.12ZM657.74,339a16.2,16.2,0,1,1-16.2,16.2A16.22,16.22,0,0,1,657.74,339Z" transform="translate(-572.59 -273.59)"/>
    <path class="cls-1" d="M754.59,368l-5.17-4.36a4.09,4.09,0,0,0-5.45.15l-2.86,2.67A29.51,29.51,0,0,0,733.5,364l-.8-3.94a4.13,4.13,0,0,0-4.36-3.28l-6.74.57a4.11,4.11,0,0,0-3.76,4l-.13,4a29.59,29.59,0,0,0-7.27,3.82L707,366.83a4.1,4.1,0,0,0-5.4.77l-4.36,5.2a4.09,4.09,0,0,0,.15,5.45l3,3.18a30.58,30.58,0,0,0-2.2,7.29l-4.27.87a4.13,4.13,0,0,0-3.28,4.36l.57,6.74a4.11,4.11,0,0,0,4,3.76l4.61.15a30.13,30.13,0,0,0,3.27,6.24l-2.58,3.89a4.1,4.1,0,0,0,.77,5.4l5.17,4.36a4.09,4.09,0,0,0,5.45-.15l3.38-3.17a29.63,29.63,0,0,0,6.94,2.26l.94,4.63a4.13,4.13,0,0,0,4.36,3.28l6.74-.57a4.11,4.11,0,0,0,3.76-4l.15-4.53a30.33,30.33,0,0,0,6.94-3.51l3.72,2.46a4.1,4.1,0,0,0,5.4-.77l4.36-5.17a4.09,4.09,0,0,0-.15-5.45l-3-3.18a29.55,29.55,0,0,0,2.36-7.32l4.1-.84a4.13,4.13,0,0,0,3.28-4.36l-.57-6.74a4.11,4.11,0,0,0-4-3.76l-4.12-.13a29.8,29.8,0,0,0-3.43-6.76l2.25-3.38A4.08,4.08,0,0,0,754.59,368Zm-25.42,39a13.26,13.26,0,1,1,12.09-14.32A13.26,13.26,0,0,1,729.17,406.94Z" transform="translate(-572.59 -273.59)"/>
    <path class="cls-1" d="M645.85,425.09a4.1,4.1,0,0,0-3.68,4l0,4.15a4.09,4.09,0,0,0,3.58,4.12l3.05.39a23.68,23.68,0,0,0,2.17,5.3l-2,2.43a4.09,4.09,0,0,0,.25,5.45l2.9,3a4.1,4.1,0,0,0,5.45.38l2.44-1.89a24,24,0,0,0,5.45,2.38l.33,3.15a4.1,4.1,0,0,0,4,3.68l4.15,0a4.09,4.09,0,0,0,4.12-3.58l.38-3a24.65,24.65,0,0,0,5.91-2.3l2.3,1.85a4.09,4.09,0,0,0,5.45-.25l3-2.9a4.1,4.1,0,0,0,.38-5.45l-1.76-2.28a23.8,23.8,0,0,0,2.49-5.74l2.72-.28a4.1,4.1,0,0,0,3.68-4l0-4.15a4.09,4.09,0,0,0-3.58-4.12l-2.66-.34a24.72,24.72,0,0,0-2.25-5.74l1.66-2a4.09,4.09,0,0,0-.25-5.45l-2.9-3a4.1,4.1,0,0,0-5.45-.38l-2,1.53a24.13,24.13,0,0,0-6-2.59l-.26-2.58a4.1,4.1,0,0,0-4-3.68l-4.15,0a4.09,4.09,0,0,0-4.12,3.58l-.33,2.56a24.78,24.78,0,0,0-6.19,2.53l-2.05-1.67a4.09,4.09,0,0,0-5.45.25l-3,2.92a4.1,4.1,0,0,0-.38,5.45l1.76,2.26a24,24,0,0,0-2.35,5.74Zm26.79-4.69a10.8,10.8,0,1,1-10.93,10.67A10.81,10.81,0,0,1,672.64,420.4Z" transform="translate(-572.59 -273.59)"/>
    <path class="cls-1" d="M683,494.41A110.41,110.41,0,1,1,793.41,384,110.53,110.53,0,0,1,683,494.41Zm0-214A103.61,103.61,0,1,0,786.61,384,103.73,103.73,0,0,0,683,280.39Z" transform="translate(-572.59 -273.59)"/>
</svg>