<svg id="Layer_1" data-name="Layer 1" 
    xmlns="http://www.w3.org/2000/svg" viewBox="0 0 220.81 220.81">
    <defs>
        <style>.cls-1{fill:#5d4c46;}</style>
    </defs>
    <title>transport</title>
    <path class="cls-1" d="M665.13,333.71q21.09,0,42.19,0a12.85,12.85,0,0,1,3.41.42,7.54,7.54,0,0,1,5.56,7.24c.16,4.21.09,8.43.11,12.64,0,.36,0,.72,0,1.09,0,1.17.46,1.6,1.64,1.6,3.39,0,6.8-.16,10.17.06a15,15,0,0,1,13,8.25c2.36,4.44,4.61,9,6.69,13.53a12.14,12.14,0,0,0,8.5,7c1.78.47,3.54,1,5.34,1.4a7.59,7.59,0,0,1,6.32,6.38,53.67,53.67,0,0,1,.85,8.42c.13,5.53.05,11.07,0,16.6a8.75,8.75,0,0,1-9,9.13c-3.09.06-6.19,0-9.29,0-.86,0-1.13-.28-1.15-1.13a20.17,20.17,0,0,0-13.73-19c-11.59-4.18-24.77,3.66-26.61,15.84-.17,1.1-.23,2.22-.31,3.34,0,.61-.29.92-.91.9H669c-1.63,0-1.63,0-1.68-1.63a20.3,20.3,0,0,0-35.24-13A19.82,19.82,0,0,0,626.76,426c0,1.2-.26,1.47-1.46,1.46a41.59,41.59,0,0,1-6.4-.19,8.68,8.68,0,0,1-7.31-8.77c0-6.22,0-12.45,0-18.67,0-2,.91-3,3-3.18.46,0,.92,0,1.38,0h29.64c5,0,8.39-3.32,8.43-8.32a16.93,16.93,0,0,0-.31-4,7.59,7.59,0,0,0-7.18-5.88c-3.26-.11-6.52-.07-9.78-.07H615.28a9,9,0,0,1-1.28-.07c-1.88-.27-2.42-.9-2.42-2.79,0-.72,0-1.45,0-2.17a2,2,0,0,1,1.92-2.09,9.11,9.11,0,0,1,1.09,0h45.65c4.15,0,7.4-2.36,8.08-6.25a17,17,0,0,0-.1-6.16,7.64,7.64,0,0,0-7.72-5.84H614.76c-2.57,0-3.18-.62-3.18-3.23,0-2.24,0-4.48,0-6.72-.05-3.75,1.75-6.3,5.06-7.87a16.91,16.91,0,0,1,7.4-1.42Zm65.15,52h11.65a7.78,7.78,0,0,0,1.37-.12c.72-.13,1-.48.5-1.18a17.07,17.07,0,0,1-1-1.8c-2-4.12-4-8.28-6.14-12.36a13.05,13.05,0,0,0-10.13-7.21,69.33,69.33,0,0,0-9-.21c-1,0-1.17.58-1.17,1.44,0,6.49,0,13,0,19.46,0,1.69.31,2,2,2Z" transform="translate(-572.59 -273.59)"/>
    <path class="cls-1" d="M633.32,367.19H606.45q-4.54,0-4.53-4.57a18.43,18.43,0,0,1,0-2.27,4,4,0,0,1,3.69-3.4c.26,0,.53,0,.79,0h53.64a4,4,0,0,1,3.69,1.66,5.56,5.56,0,0,1,.74,2.09,14.06,14.06,0,0,1,0,2.37,3.91,3.91,0,0,1-4.16,4.13q-10.52,0-21,0Z" transform="translate(-572.59 -273.59)"/>
    <path class="cls-1" d="M662.59,426.56a15.53,15.53,0,1,1-15.54-15.48A15.46,15.46,0,0,1,662.59,426.56Zm-8.72,0a6.81,6.81,0,1,0-6.77,6.82A6.85,6.85,0,0,0,653.87,426.58Z" transform="translate(-572.59 -273.59)"/>
    <path class="cls-1" d="M713.66,426.57a15.55,15.55,0,1,1,15.5,15.52A15.53,15.53,0,0,1,713.66,426.57Zm8.76-.07a6.8,6.8,0,1,0,6.86-6.7A6.82,6.82,0,0,0,722.42,426.5Z" transform="translate(-572.59 -273.59)"/>
    <path class="cls-1" d="M620.83,382.38q12.24,0,24.49,0c1.29,0,2.59.09,3.41,1.17a7.34,7.34,0,0,1,1.16,2.62,9.49,9.49,0,0,1,0,2.36,3.89,3.89,0,0,1-3.71,4.08,9.4,9.4,0,0,1-1,0H596.46c-3.33,0-4.67-1.49-4.83-4.83-.17-3.54,1.37-5.55,5.41-5.47C605,382.49,612.9,382.38,620.83,382.38Z" transform="translate(-572.59 -273.59)"/>
    <path class="cls-1" d="M683,494.41A110.41,110.41,0,1,1,793.41,384,110.53,110.53,0,0,1,683,494.41Zm0-214A103.61,103.61,0,1,0,786.61,384,103.73,103.73,0,0,0,683,280.39Z" transform="translate(-572.59 -273.59)"/>
</svg>