<svg id="Layer_1" data-name="Layer 1" 
    xmlns="http://www.w3.org/2000/svg" viewBox="0 0 220.81 220.81">
    <defs>
        <style>.cls-1{fill:#ff7a5a;}</style>
    </defs>
    <title>delivery</title>
    <path class="cls-1" d="M751.39,384c0,12.12-.07,24.25,0,36.37a7.72,7.72,0,0,1-4.37,7.57q-30.43,17.35-60.68,35a6.91,6.91,0,0,1-7.77,0q-30.38-17.69-60.89-35.14a7.38,7.38,0,0,1-4.1-7.18q.09-36.76,0-73.52a7.41,7.41,0,0,1,4.14-7.17q30.52-17.45,60.9-35.14c2.62-1.52,4.85-1.67,7.53-.11q30.72,17.88,61.57,35.54c2.72,1.56,3.64,3.75,3.64,6.66Q751.37,365.37,751.39,384Zm-74.23,66a15.52,15.52,0,0,0,.25-1.82c0-20.49,0-41-.05-61.47a3.64,3.64,0,0,0-1.55-2.59c-5.28-3.21-10.66-6.27-16-9.35a11.91,11.91,0,0,0-1.8-.61v11.32l-.56.4c-1.42-3.33-3.91-4.24-7.16-3.93-.7.07-1.6-1.16-2.27-1.91-1.62-1.8-2.73-4.49-6.17-2.62,0-4,.13-7.48-.08-10.94a4.38,4.38,0,0,0-1.7-3c-4.51-2.81-9.15-5.39-13.76-8a22.1,22.1,0,0,0-2.23-1c-.09,1-.21,1.72-.21,2.4,0,20.14,0,40.28,0,60.42,0,1.78.81,2.61,2.21,3.42q24.24,13.92,48.44,27.92C675.27,449.06,676.11,449.45,677.16,450Zm10.45.09c1.27-.62,2.05-.94,2.78-1.36,16.15-9.31,32.27-18.66,48.45-27.92a4.13,4.13,0,0,0,2.38-4.13c-.07-19.79,0-39.58-.05-59.38,0-.89-.14-1.79-.24-2.91-.94.42-1.51.62-2,.92q-24.78,14.3-49.58,28.57c-1.62.93-1.73,2.12-1.73,3.67q0,28,0,56C687.62,445.52,687.61,447.51,687.61,450.08Zm48.17-104.81c-1.14-.75-1.76-1.2-2.42-1.59-5.27-3.06-10.59-6-15.8-9.19a4.46,4.46,0,0,0-5.22,0c-16.08,9.39-32.23,18.67-48.36,28-.64.37-1.23.84-2.13,1.45,1,.64,1.66,1.13,2.38,1.55,5.34,3.1,10.73,6.13,16,9.33a3.82,3.82,0,0,0,4.49,0c10.81-6.34,21.7-12.55,32.55-18.81C723.32,352.5,729.33,349,735.78,345.26Zm-106.65-.06c5.06,2.92,9.61,5.47,14.06,8.17a3.64,3.64,0,0,0,4.27,0q24.38-14.18,48.84-28.24c.65-.38,1.25-.84,2.26-1.52-4.8-2.79-9.32-5.34-13.76-8a3.85,3.85,0,0,0-4.51,0q-22.34,13-44.76,25.9C633.59,342.59,631.66,343.73,629.13,345.2Z" transform="translate(-572.59 -273.59)"/>
    <path class="cls-1" d="M702,423.51V400.35a21.08,21.08,0,0,1-2.46,1.05,9.68,9.68,0,0,1-1.87.15c0-.66-.34-1.44-.09-1.95,2.11-4.29,4.26-8.57,6.54-12.77.87-1.61,2.2-1.79,3.65-.44,1,.94,2.18,1.74,3.28,2.6,2.54,2,2.64,4.15-.11,5.71-2.1,1.19-2.52,2.68-2.47,4.86.12,5.75-.1,11.51.11,17.25.09,2.37-.65,3.74-2.77,4.62A41.64,41.64,0,0,0,702,423.51Z" transform="translate(-572.59 -273.59)"/>
    <path class="cls-1" d="M722.44,411.8V388.53a17.13,17.13,0,0,1-2.38,1,8.64,8.64,0,0,1-1.9,0,4.83,4.83,0,0,1,0-1.92c2.08-4.21,4.18-8.41,6.4-12.55.91-1.7,2.22-2,3.78-.53,1,1,2.16,1.76,3.25,2.62,2.55,2,2.67,4.1-.13,5.65-2.23,1.24-2.64,2.77-2.59,5.05.14,5.57-.12,11.16.13,16.73.12,2.69-.75,4.24-3.14,5.22A35.15,35.15,0,0,0,722.44,411.8Z" transform="translate(-572.59 -273.59)"/>
    <path class="cls-1" d="M732.83,410a3.53,3.53,0,0,1-1.66,4.88Q715.5,424,699.77,433a5.69,5.69,0,0,1-2.13.24c0-.73-.19-1.6.13-2.17a6,6,0,0,1,2.05-2.24q15.76-9.2,31.6-18.27A11.72,11.72,0,0,1,732.83,410Z" transform="translate(-572.59 -273.59)"/>
    <path class="cls-1" d="M683,494.41A110.41,110.41,0,1,1,793.41,384,110.53,110.53,0,0,1,683,494.41Zm0-214A103.61,103.61,0,1,0,786.61,384,103.73,103.73,0,0,0,683,280.39Z" transform="translate(-572.59 -273.59)"/>
</svg>